<svg xmlns="http://www.w3.org/2000/svg" xmlns:xlink="http://www.w3.org/1999/xlink" viewBox="0 0 117.55 229.31"><defs><style>.cls-1{fill:url(#linear-gradient);}.cls-2{fill:#ef4945;}.cls-3{fill:url(#linear-gradient-2);}</style><linearGradient id="linear-gradient" x1="-4.27" y1="156.31" x2="111.96" y2="79.18" gradientUnits="userSpaceOnUse"><stop offset="0.17" stop-color="#9f2332"/><stop offset="1" stop-color="#da291c"/></linearGradient><linearGradient id="linear-gradient-2" x1="15.11" y1="70.29" x2="113.04" y2="5.3" xlink:href="#linear-gradient"/></defs><title>Asset 2</title><g id="Layer_2" data-name="Layer 2"><g id="Layer_1-2" data-name="Layer 1"><path class="cls-1" d="M0,126.86,79.93,77.1c15.5-9.65,37.62-.47,37.62,15.61h0c0,6.14-3.48,11.92-9.4,15.6L14.24,166.76C8.37,170.41,0,167,0,160.87Z"/><path class="cls-2" d="M9.48,181.52l70.45,43.85c15.5,9.65,37.62.47,37.62-15.6h0c0-6.15-3.48-11.93-9.4-15.61L0,126.85v38.94C0,172,3.51,177.81,9.48,181.52Z"/><path class="cls-3" d="M0,53.7,79.93,3.94c15.5-9.65,37.62-.47,37.62,15.61h0c0,6.14-3.48,11.92-9.4,15.6L14.24,93.6C8.37,97.25,0,93.8,0,87.71Z"/><path class="cls-2" d="M9.48,108.36l70.45,43.85c15.5,9.65,37.62.47,37.62-15.61h0c0-6.14-3.48-11.92-9.4-15.6L0,53.69V92.63C0,98.82,3.51,104.65,9.48,108.36Z"/></g></g></svg>